<?xml version="1.0" encoding="UTF-8"?><svg version="1.1" width="13px" height="12px" viewBox="0 0 13.0 12.0" xmlns="http://www.w3.org/2000/svg" xmlns:xlink="http://www.w3.org/1999/xlink"><defs><clipPath id="i0"><path d="M1242,0 L1242,591 L0,591 L0,0 L1242,0 Z"></path></clipPath><clipPath id="i1"><path d="M10.6666667,10.6666667 L10.6666667,12 L0,12 L0,10.6666667 L10.6666667,10.6666667 Z M10.6666667,0 C11.4066667,0 12,0.593333333 12,1.33333333 L12,3.33333333 C12,4.06666667 11.4066667,4.66666667 10.6666667,4.66666667 L9.33333333,4.66666667 L9.33333333,6.66666667 C9.33333333,8.14 8.14,9.33333333 6.66666667,9.33333333 L2.66666667,9.33333333 C1.19333333,9.33333333 0,8.14 0,6.66666667 L0,0 Z M8,1.33333333 L1.33333333,1.33333333 L1.33333333,6.66666667 C1.33333333,7.4 1.93333333,8 2.66666667,8 L6.66666667,8 C7.4,8 8,7.4 8,6.66666667 L8,1.33333333 Z M10.6666667,1.33333333 L9.33333333,1.33333333 L9.33333333,3.33333333 L10.6666667,3.33333333 L10.6666667,1.33333333 Z"></path></clipPath></defs><g transform="translate(-639.0 -70.0)"><g clip-path="url(#i0)"><g transform="translate(639.6666666666666 70.0)"><g clip-path="url(#i1)"><polygon points="0,0 12,0 12,12 0,12 0,0" stroke="none" fill="#1B1B1B"></polygon></g></g></g></g></svg>