<?xml version="1.0" encoding="UTF-8"?><svg version="1.1" width="18px" height="18px" viewBox="0 0 18.0 18.0" xmlns="http://www.w3.org/2000/svg" xmlns:xlink="http://www.w3.org/1999/xlink"><defs><clipPath id="i0"><path d="M14,10 C16.209139,10 18,11.790861 18,14 C18,16.209139 16.209139,18 14,18 C12.1364348,18 10.570521,16.7256022 10.1262135,15.0007613 L0,15 L0,13 L10.1259548,13.0002435 C10.5699129,11.2748927 12.1360729,10 14,10 Z M14,12 C12.8954305,12 12,12.8954305 12,14 C12,15.1045695 12.8954305,16 14,16 C15.1045695,16 16,15.1045695 16,14 C16,12.8954305 15.1045695,12 14,12 Z M4,0 C5.86392711,0 7.43008706,1.27489272 7.87404517,3.00024347 L18,3 L18,5 L7.87378648,5.00076134 C7.42947895,6.72560224 5.86356525,8 4,8 C1.790861,8 0,6.209139 0,4 C0,1.790861 1.790861,0 4,0 Z M4,2 C2.8954305,2 2,2.8954305 2,4 C2,5.1045695 2.8954305,6 4,6 C5.1045695,6 6,5.1045695 6,4 C6,2.8954305 5.1045695,2 4,2 Z"></path></clipPath></defs><g transform="translate(-7.0 -11.0)"><g transform="translate(4.0 8.0)"><g transform="translate(3.0 3.0)"><g clip-path="url(#i0)"><polygon points="0,0 18,0 18,18 0,18 0,0" stroke="none" fill="#000000"></polygon></g></g></g></g></svg>