<?xml version="1.0" encoding="UTF-8"?><svg version="1.1" width="24px" height="24px" viewBox="0 0 24.0 24.0" xmlns="http://www.w3.org/2000/svg" xmlns:xlink="http://www.w3.org/1999/xlink"><defs><clipPath id="i0"><path d="M2,0 L14,0.01 C15.1,0.01 16,0.89 16,2 L16,18 C16,19.1 15.1,20 14,20 L2,20 C0.9,20 0,19.1 0,18 L0,2 C0,0.89 0.9,0 2,0 Z M14,8.98 L2,8.98 L2,18 L14,18 L14,8.98 Z M6,10 L6,15 L4,15 L4,10 L6,10 Z M14,2 L2,2 L2,7 L14,7 L14,2 Z M6,3 L6,6 L4,6 L4,3 L6,3 Z"></path></clipPath></defs><g transform="translate(4.0 2.0)"><g clip-path="url(#i0)"><polygon points="0,0 16,0 16,20 0,20 0,0" stroke="none" fill="#1B1B1B"></polygon></g></g></svg>