<?xml version="1.0" encoding="UTF-8"?><svg version="1.1" width="24px" height="24px" viewBox="0 0 24.0 24.0" xmlns="http://www.w3.org/2000/svg" xmlns:xlink="http://www.w3.org/1999/xlink"><defs><clipPath id="i0"><path d="M10,7 C13,7 13.6271973,10.369751 15.2706299,11.9558105 L16.0100738,12.6707302 C17.6044444,14.2399808 19.463694,16.3924684 18,18.5447049 C16.2166748,21.1309136 13.9924316,19.5025024 10,19.5025024 C6.00756836,19.5025024 3.76257324,21.1130914 2,18.5447049 C0.419189453,16.0899658 3.02355957,13.5418701 4.73706055,11.9558105 C6.45056152,10.369751 7,7 10,7 Z M10,9 C9.32460702,9 8.94498158,9.32322161 8.08288704,10.7150033 L7.85973171,11.0800854 C7.19971986,12.1650172 6.80587429,12.7339495 6.24074326,13.2856871 L5.67301948,13.8221406 C3.79369736,15.6308566 3.20860329,16.7276327 3.64904017,17.4130395 L3.74395415,17.5472448 C4.09687426,18.025592 4.36252276,18.0929987 5.86126815,17.8973111 L6.76205539,17.7721184 C8.04354887,17.5879775 8.94165265,17.5025024 10,17.5025024 C10.9438235,17.5025024 11.7599816,17.5711755 12.8297235,17.7177741 L14.1413585,17.9032741 C15.569636,18.0931296 15.8704681,18.0402221 16.2046802,17.6150316 L16.3462089,17.4199938 C16.7519411,16.822233 16.4391946,16.0066844 15.1140174,14.6105673 L14.8148537,14.3027722 L13.8817595,13.394921 C13.34989,12.8816193 12.9752491,12.3707415 12.4232389,11.4813417 L12.0821116,10.9241384 C11.1400812,9.38196872 10.7215578,9 10,9 Z M2.5,4 C3.88071187,4 5,5.11928813 5,6.5 C5,7.8254834 3.96846406,8.91003867 2.66437569,8.99468232 L2.5,9 C1.11928813,9 0,7.88071187 0,6.5 C0,5.1745166 1.03153594,4.08996133 2.33562431,4.00531768 L2.5,4 Z M17.5,4 C18.8807119,4 20,5.11928813 20,6.5 C20,7.8254834 18.9684641,8.91003867 17.6643757,8.99468232 L17.5,9 C16.1192881,9 15,7.88071187 15,6.5 C15,5.1745166 16.0315359,4.08996133 17.3356243,4.00531768 L17.5,4 Z M2.5,5.5 C1.94771525,5.5 1.5,5.94771525 1.5,6.5 C1.5,7.05228475 1.94771525,7.5 2.5,7.5 C3.05228475,7.5 3.5,7.05228475 3.5,6.5 C3.5,5.94771525 3.05228475,5.5 2.5,5.5 Z M17.5,5.5 C16.9477153,5.5 16.5,5.94771525 16.5,6.5 C16.5,7.05228475 16.9477153,7.5 17.5,7.5 C18.0522847,7.5 18.5,7.05228475 18.5,6.5 C18.5,5.94771525 18.0522847,5.5 17.5,5.5 Z M7,0 C8.38071187,0 9.5,1.11928813 9.5,2.5 C9.5,3.8254834 8.46846406,4.91003867 7.16437569,4.99468232 L7,5 C5.61928813,5 4.5,3.88071187 4.5,2.5 C4.5,1.1745166 5.53153594,0.089961328 6.83562431,0.00531767968 L7,0 Z M13,0 C14.3807119,0 15.5,1.11928813 15.5,2.5 C15.5,3.8254834 14.4684641,4.91003867 13.1643757,4.99468232 L13,5 C11.6192881,5 10.5,3.88071187 10.5,2.5 C10.5,1.1745166 11.5315359,0.089961328 12.8356243,0.00531767968 L13,0 Z M7,1.5 C6.44771525,1.5 6,1.94771525 6,2.5 C6,3.05228475 6.44771525,3.5 7,3.5 C7.55228475,3.5 8,3.05228475 8,2.5 C8,1.94771525 7.55228475,1.5 7,1.5 Z M13,1.5 C12.4477153,1.5 12,1.94771525 12,2.5 C12,3.05228475 12.4477153,3.5 13,3.5 C13.5522847,3.5 14,3.05228475 14,2.5 C14,1.94771525 13.5522847,1.5 13,1.5 Z"></path></clipPath></defs><g transform="translate(2.0 2.0)"><g clip-path="url(#i0)"><polygon points="0,0 20,0 20,20.0084154 0,20.0084154 0,0" stroke="none" fill="#1B1B1B"></polygon></g></g></svg>