<?xml version="1.0" encoding="UTF-8"?><svg version="1.1" width="24px" height="24px" viewBox="0 0 24.0 24.0" xmlns="http://www.w3.org/2000/svg" xmlns:xlink="http://www.w3.org/1999/xlink"><defs><clipPath id="i0"><path d="M16.67,15.0001588 C17.78,15.0001588 18.4,15.3701588 18.85,15.6401588 C19.22,15.8701588 19.44,16.0001588 20,16.0001588 L20,18.0001588 C18.89,18.0001588 18.27,17.6301588 17.82,17.3601588 C17.45,17.1401588 17.22,17.0001588 16.67,17.0001588 C16.11,17.0001588 15.89,17.1301588 15.52,17.3601588 C15.06,17.6301588 14.45,18.0001588 13.34,18.0001588 C12.23,18.0001588 11.61,17.6301588 11.16,17.3601588 C10.79,17.1401588 10.56,17.0001588 10.01,17.0001588 C9.45,17.0001588 9.23,17.1301588 8.86,17.3601588 C8.4,17.6301588 7.78,18.0001588 6.67,18.0001588 C5.56,18.0001588 4.94,17.6301588 4.49,17.3601588 C4.12,17.1301588 3.89,17.0001588 3.34,17.0001588 C2.79,17.0001588 2.56,17.1301588 2.19,17.3601588 C1.73,17.6301588 1.11,18.0001588 0,18.0001588 L0,16.0001588 C0.56,16.0001588 0.78,15.8701588 1.15,15.6401588 C1.61,15.3701588 2.23,15.0001588 3.34,15.0001588 C4.45,15.0001588 5.07,15.3701588 5.52,15.6401588 C5.89,15.8701588 6.11,16.0001588 6.67,16.0001588 C7.23,16.0001588 7.45,15.8701588 7.82,15.6401588 C8.28,15.3701588 8.9,15.0001588 10.01,15.0001588 C11.12,15.0001588 11.74,15.3701588 12.19,15.6401588 C12.56,15.8601588 12.79,16.0001588 13.34,16.0001588 C13.89,16.0001588 14.12,15.8701588 14.49,15.6401588 C14.94,15.3701588 15.56,15.0001588 16.67,15.0001588 Z M16.65,10.5001588 C17.76,10.5001588 18.38,10.8701588 18.83,11.1401588 C19.2,11.3601588 19.43,11.5001588 19.98,11.5001588 L19.98,13.5001588 C18.88,13.4901588 18.27,13.1301588 17.82,12.8601588 C17.45,12.6401588 17.22,12.5001588 16.67,12.5001588 C16.11,12.5001588 15.89,12.6301588 15.52,12.8601588 C15.07,13.1301588 14.45,13.5001588 13.34,13.5001588 C12.23,13.5001588 11.61,13.1301588 11.16,12.8601588 C10.79,12.6401588 10.56,12.5001588 10.01,12.5001588 C9.45,12.5001588 9.23,12.6301588 8.86,12.8601588 C8.41,13.1301588 7.79,13.5001588 6.68,13.5001588 C5.57,13.5001588 4.95,13.1301588 4.5,12.8601588 C4.13,12.6401588 3.9,12.5001588 3.35,12.5001588 C2.8,12.5001588 2.57,12.6301588 2.2,12.8601588 C1.73,13.1301588 1.11,13.5001588 0,13.5001588 L0,11.5001588 C0.56,11.5001588 0.78,11.3701588 1.15,11.1401588 C1.6,10.8701588 2.22,10.5001588 3.33,10.5001588 C4.44,10.5001588 5.06,10.8701588 5.51,11.1401588 C5.88,11.3601588 6.11,11.5001588 6.66,11.5001588 C7.22,11.5001588 7.44,11.3701588 7.81,11.1401588 C8.26,10.8701588 8.88,10.5001588 9.99,10.5001588 C11.1,10.5001588 11.72,10.8701588 12.17,11.1401588 C12.54,11.3601588 12.77,11.5001588 13.32,11.5001588 C13.87,11.5001588 14.1,11.3701588 14.47,11.1401588 C14.92,10.8701588 15.54,10.5001588 16.65,10.5001588 Z M3,0.000158835753 C5.5,-0.00984116425 6.93,0.450158836 8.48,2.00015884 L14.9,8.41015884 C14.75,8.49015884 14.61,8.57015884 14.49,8.64015884 C14.12,8.87015884 13.89,9.00015884 13.34,9.00015884 C12.79,9.00015884 12.56,8.86015884 12.19,8.64015884 C11.74,8.37015884 11.12,8.00015884 10.01,8.00015884 C8.9,8.00015884 8.28,8.37015884 7.82,8.64015884 C7.45,8.87015884 7.23,9.00015884 6.67,9.00015884 C6.11,9.00015884 5.89,8.87015884 5.52,8.64015884 C5.31,8.52015884 5.06,8.37015884 4.75,8.25015884 L8,5.00015884 L7,4.00015884 C5.89,2.89015884 4.82,2.49015884 3,2.50015884 L3,0.000158835753 Z M14.5,0.000158835753 C15.8807119,0.000158835753 17,1.11944696 17,2.50015884 C17,3.88087071 15.8807119,5.00015884 14.5,5.00015884 C13.1192881,5.00015884 12,3.88087071 12,2.50015884 C12,1.11944696 13.1192881,0.000158835753 14.5,0.000158835753 Z"></path></clipPath></defs><g transform="translate(2.0000000000000018 2.9998411642465133)"><g clip-path="url(#i0)"><polygon points="0,5.33801519e-15 20,5.33801519e-15 20,18.0001588 0,18.0001588 0,5.33801519e-15" stroke="none" fill="#1B1B1B"></polygon></g></g></svg>