<?xml version="1.0" encoding="UTF-8"?><svg version="1.1" width="16px" height="13px" viewBox="0 0 16.0 13.0" xmlns="http://www.w3.org/2000/svg" xmlns:xlink="http://www.w3.org/1999/xlink"><defs><clipPath id="i0"><path d="M1242,0 L1242,591 L0,591 L0,0 L1242,0 Z"></path></clipPath><clipPath id="i1"><path d="M10,0 C12.576096,0 14.6666667,2.07329318 14.6666667,4.63360882 C14.6666667,6.83299744 13.250184,9.29135586 10.4694444,12.0491141 L10,12.5146788 L9.53055556,12.0491141 C6.74981604,9.29135586 5.33333333,6.83299744 5.33333333,4.63360882 C5.33333333,2.07329318 7.42390395,0 10,0 Z M1,1.12121212 L1,4.45454545 L1.66666667,4.45454545 L1.66666667,1.12121212 L2.66666667,1.12121212 L2.66666667,4.45454545 L3.33333333,4.45454545 L3.33333333,1.12121212 L4.33333333,1.12121212 L4.33333333,4.45454545 C4.33333333,5.12121212 3.66666667,5.78787879 2.66666667,5.78787879 L2.66666667,11.7878788 L1.66666667,11.7878788 L1.66666667,5.78787879 C0.666666667,5.78787879 0,5.12121212 0,4.45454545 L0,1.12121212 L1,1.12121212 Z M10,1.33333333 C8.15781805,1.33333333 6.66666667,2.81216115 6.66666667,4.63360882 C6.66666667,6.24520174 7.70596319,8.19113888 9.82414158,10.4407758 L10,10.6252121 L10.1758584,10.4407758 C12.2257085,8.26370781 13.2651593,6.37106209 13.3300876,4.79061213 L13.3333333,4.63360882 C13.3333333,2.81216115 11.842182,1.33333333 10,1.33333333 Z M10,3.12121212 C10.9204746,3.12121212 11.6666667,3.8674042 11.6666667,4.78787879 C11.6666667,5.70835337 10.9204746,6.45454545 10,6.45454545 C9.07952542,6.45454545 8.33333333,5.70835337 8.33333333,4.78787879 C8.33333333,3.8674042 9.07952542,3.12121212 10,3.12121212 Z"></path></clipPath></defs><g transform="translate(-796.0 -70.0)"><g clip-path="url(#i0)"><g transform="translate(796.6666666666666 70.54545454545455)"><g clip-path="url(#i1)"><polygon points="0,0 14.6666667,0 14.6666667,12.5146788 0,12.5146788 0,0" stroke="none" fill="#1B1B1B"></polygon></g></g></g></g></svg>